<?xml version="1.0" encoding="UTF-8" standalone="no"?>
<svg
   xmlns:dc="http://purl.org/dc/elements/1.1/"
   xmlns:cc="http://creativecommons.org/ns#"
   xmlns:rdf="http://www.w3.org/1999/02/22-rdf-syntax-ns#"
   xmlns:svg="http://www.w3.org/2000/svg"
   xmlns="http://www.w3.org/2000/svg"
   xmlns:sodipodi="http://sodipodi.sourceforge.net/DTD/sodipodi-0.dtd"
   xmlns:inkscape="http://www.inkscape.org/namespaces/inkscape"
   data-name="Layer 1"
   width="806.35164"
   height="520.95563"
   viewBox="0 0 806.35164 520.95563"
   version="1.1"
   id="svg108"
   sodipodi:docname="ar.svg"
   inkscape:version="1.0.2-2 (e86c870879, 2021-01-15)">
  <metadata
     id="metadata114">
    <rdf:RDF>
      <cc:Work
         rdf:about="">
        <dc:format>image/svg+xml</dc:format>
        <dc:type
           rdf:resource="http://purl.org/dc/dcmitype/StillImage" />
      </cc:Work>
    </rdf:RDF>
  </metadata>
  <defs
     id="defs112" />
  <sodipodi:namedview
     pagecolor="#ffffff"
     bordercolor="#666666"
     borderopacity="1"
     objecttolerance="10"
     gridtolerance="10"
     guidetolerance="10"
     inkscape:pageopacity="0"
     inkscape:pageshadow="2"
     inkscape:window-width="817"
     inkscape:window-height="688"
     id="namedview110"
     showgrid="false"
     inkscape:zoom="0.48385561"
     inkscape:cx="342.85226"
     inkscape:cy="290.69672"
     inkscape:window-x="-7"
     inkscape:window-y="0"
     inkscape:window-maximized="0"
     inkscape:current-layer="svg108" />
  <g
     id="g992"
     transform="matrix(0.74113037,0,0,0.76847737,99.203152,52.039585)">
    <path
       d="m 968.6184,323.47782 h -647.62 a 22.71737,22.71737 0 0 0 -22.69,22.69 v 341.62 a 22.58066,22.58066 0 0 0 6.18,15.54 c 0.4,0.43 0.82,0.84 1.25,1.22 a 22.52375,22.52375 0 0 0 15.26,5.93 h 647.62 a 22.71733,22.71733 0 0 0 22.6898,-22.69 1235.1601,1235.1601 0 0 0 0,-341.62012 22.71727,22.71727 0 0 0 -22.6898,-22.68988 z"
       transform="translate(-196.82418,-189.52218)"
       fill="#f2f2f2"
       id="path2" />
    <path
       d="m 938.6184,287.47782 h -647.62 a 22.71737,22.71737 0 0 0 -22.69,22.69 v 341.62 a 22.58066,22.58066 0 0 0 6.18,15.54 c 0.4,0.43 0.82,0.84 1.25,1.22 a 22.52375,22.52375 0 0 0 15.26,5.93 h 647.62 a 22.71738,22.71738 0 0 0 22.69,-22.69 v -341.62 a 22.71737,22.71737 0 0 0 -22.69,-22.69 z"
       transform="translate(-196.82418,-189.52218)"
       fill="#ffffff"
       id="path4" />
    <path
       d="m 672.348,515.13755 a 2.26935,2.26935 0 0 1 -1.64469,-3.93333 l 0.1555,-0.61819 q -0.0307,-0.0743 -0.0618,-0.14839 a 6.09416,6.09416 0 0 0 -11.24138,0.0418 c -1.83859,4.42817 -4.17942,8.86389 -4.7558,13.54594 a 18.029,18.029 0 0 0 0.31649,6.20047 72.28137,72.28137 0 0 1 -6.57515,-30.02077 69.76619,69.76619 0 0 1 0.43274,-7.783 q 0.3585,-3.1778 0.99471,-6.31033 a 73.11887,73.11887 0 0 1 14.50012,-30.98962 19.459,19.459 0 0 0 8.09295,-8.39652 14.84349,14.84349 0 0 0 1.34991,-4.05618 c -0.394,0.0517 -1.48556,-5.94866 -1.1884,-6.3168 -0.54906,-0.83317 -1.53178,-1.24732 -2.13144,-2.06034 -2.98232,-4.04341 -7.0912,-3.33741 -9.2362,2.15727 -4.58224,2.31266 -4.6266,6.148 -1.815,9.83683 1.78878,2.34681 2.03456,5.52232 3.60409,8.03478 -0.16151,0.20671 -0.32945,0.40695 -0.49091,0.61366 a 73.59138,73.59138 0 0 0 -7.681,12.16859 30.5924,30.5924 0 0 0 -1.8264,-14.20958 c -1.74819,-4.21732 -5.02491,-7.76916 -7.91045,-11.415 a 6.27922,6.27922 0 0 0 -11.184,3.08333 q -0.009,0.0806 -0.0173,0.16119 0.6429,0.36267 1.25864,0.76992 a 3.0782,3.0782 0 0 1 -1.24107,5.60174 l -0.0628,0.01 a 30.62792,30.62792 0 0 0 0.80734,4.57937 c -3.70179,14.31579 4.29011,19.5299 15.70147,19.76413 0.25191,0.12916 0.49739,0.25832 0.74929,0.38108 a 75.11456,75.11456 0 0 0 -4.04326,19.02779 71.24458,71.24458 0 0 0 0.0517,11.50323 l -0.0194,-0.13562 a 18.82566,18.82566 0 0 0 -6.4266,-10.87028 c -4.94561,-4.06264 -11.93283,-5.55869 -17.26826,-8.82425 a 3.533,3.533 0 0 0 -5.41121,3.43708 l 0.0218,0.14261 a 20.67471,20.67471 0 0 1 2.31872,1.11733 q 0.64288,0.36276 1.25864,0.76992 a 3.07824,3.07824 0 0 1 -1.24108,5.6018 l -0.0628,0.01 c -0.0452,0.006 -0.084,0.013 -0.12911,0.0194 a 30.65462,30.65462 0 0 0 5.63854,8.82922 c 2.31464,12.49713 12.256,13.68283 22.89023,10.04354 h 0.006 a 75.09216,75.09216 0 0 0 5.0444,14.72621 h 18.02018 c 0.0646,-0.20022 0.12274,-0.40693 0.1809,-0.60717 a 20.47486,20.47486 0 0 1 -4.9863,-0.297 c 1.337,-1.64059 2.674,-3.29409 4.011,-4.93462 a 1.119,1.119 0 0 0 0.084,-0.0969 c 0.67817,-0.8396 1.36282,-1.67283 2.041,-2.51246 l 3.6e-4,-0.001 a 29.99051,29.99051 0 0 0 -0.87875,-7.63985 z"
       transform="translate(-196.82418,-189.52218)"
       fill="#f2f2f2"
       id="path6" />
    <path
       d="m 961.3084,546.47782 v 36.31 a 22.71738,22.71738 0 0 1 -22.69,22.69 h -647.62 a 22.52375,22.52375 0 0 1 -15.26,-5.93 c -0.43,-0.38 -0.85,-0.79 -1.25,-1.22 a 22.58066,22.58066 0 0 1 -6.18,-15.54 v -36.31 c 197.15131,-32.55921 439.61066,-21.53641 693,0 z"
       transform="translate(-196.82418,-189.52218)"
       fill="#3f3d56"
       id="path8" />
    <path
       d="m 961.3084,586.47782 v 36.31 a 22.71738,22.71738 0 0 1 -22.69,22.69 h -647.62 a 22.52375,22.52375 0 0 1 -15.26,-5.93 c -0.43,-0.38 -0.85,-0.79 -1.25,-1.22 a 22.58066,22.58066 0 0 1 -6.18,-15.54 v -36.31 c 181.46979,-24.28333 428.41724,-16.46473 693,0 z"
       transform="translate(-196.82418,-189.52218)"
       fill="#ffffff"
       id="path10" />
    <path
       d="m 961.3084,615.47782 v 36.31 a 22.71738,22.71738 0 0 1 -22.69,22.69 h -647.62 a 22.52375,22.52375 0 0 1 -15.26,-5.93 c -0.43,-0.38 -0.85,-0.79 -1.25,-1.22 a 22.58066,22.58066 0 0 1 -6.18,-15.54 v -36.31 c 196.35065,-20.39112 435.5736,-15.55188 693,0 z"
       transform="translate(-196.82418,-189.52218)"
       fill="#3f3d56"
       id="path12" />
    <path
       d="m 907.348,510.13755 a 2.26935,2.26935 0 0 1 -1.64469,-3.93333 l 0.1555,-0.61819 q -0.0307,-0.0743 -0.0618,-0.14839 a 6.09416,6.09416 0 0 0 -11.24138,0.0418 c -1.83859,4.42817 -4.17942,8.86389 -4.7558,13.54594 a 18.029,18.029 0 0 0 0.31649,6.20047 72.28137,72.28137 0 0 1 -6.57515,-30.02077 69.76619,69.76619 0 0 1 0.43274,-7.783 q 0.3585,-3.1778 0.99471,-6.31033 a 73.11887,73.11887 0 0 1 14.50012,-30.98962 19.459,19.459 0 0 0 8.09295,-8.39652 14.84349,14.84349 0 0 0 1.34991,-4.05618 c -0.394,0.0517 -1.48556,-5.94866 -1.1884,-6.3168 -0.54906,-0.83317 -1.53178,-1.24732 -2.13144,-2.06034 -2.98232,-4.04341 -7.0912,-3.33741 -9.2362,2.15727 -4.58224,2.31266 -4.6266,6.148 -1.815,9.83683 1.78878,2.34681 2.03456,5.52232 3.60409,8.03478 -0.16151,0.20671 -0.32945,0.40695 -0.49091,0.61366 a 73.59138,73.59138 0 0 0 -7.681,12.16859 30.5924,30.5924 0 0 0 -1.8264,-14.20958 c -1.74819,-4.21732 -5.02491,-7.76916 -7.91045,-11.415 a 6.27922,6.27922 0 0 0 -11.184,3.08333 q -0.009,0.0806 -0.0173,0.16119 0.6429,0.36267 1.25864,0.76992 a 3.0782,3.0782 0 0 1 -1.24107,5.60174 l -0.0628,0.01 a 30.62792,30.62792 0 0 0 0.80734,4.57937 c -3.70179,14.31579 4.29011,19.5299 15.70147,19.76413 0.25191,0.12916 0.49739,0.25832 0.74929,0.38108 a 75.11456,75.11456 0 0 0 -4.04326,19.02779 71.24458,71.24458 0 0 0 0.0517,11.50323 l -0.0194,-0.13562 a 18.82566,18.82566 0 0 0 -6.4266,-10.87028 c -4.94561,-4.06264 -11.93283,-5.55869 -17.26826,-8.82425 a 3.533,3.533 0 0 0 -5.41121,3.43708 l 0.0218,0.14261 a 20.67471,20.67471 0 0 1 2.31872,1.11733 q 0.64288,0.36276 1.25864,0.76992 a 3.07824,3.07824 0 0 1 -1.24108,5.6018 l -0.0628,0.01 c -0.0452,0.006 -0.084,0.013 -0.12911,0.0194 a 30.65462,30.65462 0 0 0 5.63854,8.82922 c 2.31464,12.49713 12.256,13.68283 22.89023,10.04354 h 0.006 a 75.09216,75.09216 0 0 0 5.0444,14.72621 h 18.02018 c 0.0646,-0.20022 0.12274,-0.40693 0.1809,-0.60717 a 20.47486,20.47486 0 0 1 -4.9863,-0.297 c 1.337,-1.64059 2.674,-3.29409 4.011,-4.93462 a 1.119,1.119 0 0 0 0.084,-0.0969 c 0.67817,-0.8396 1.36282,-1.67283 2.041,-2.51246 l 3.6e-4,-0.001 a 29.99051,29.99051 0 0 0 -0.87875,-7.63985 z"
       transform="translate(-196.82418,-189.52218)"
       fill="#f2f2f2"
       id="path14" />
    <path
       d="m 895.84173,551.50346 c 0,0.3264 -0.005,0.6528 -0.01,0.97436 h -65.9105 a 11.00852,11.00852 0 0 1 -8.04334,-3.48335 c 0.0243,-0.45795 0.0633,-0.911 0.112,-1.3641 1.939,-18.62486 26.1785,-46.69955 36.82591,-33.15255 10.64741,13.547 37.02568,16.5787 37.02568,37.02564 z"
       transform="translate(-196.82418,-189.52218)"
       fill="#3f3d56"
       id="path16" />
    <path
       d="m 930.91858,551.79874 c 0.003,0.22753 -0.003,0.455 -0.007,0.67908 H 884.9716 a 7.673,7.673 0 0 1 -5.60628,-2.42793 c 0.017,-0.31919 0.0441,-0.635 0.0781,-0.95079 1.3515,-12.98171 21.84235,-35.88923 25.668,-23.10749 9.75101,32.57714 25.60746,13.00048 25.80717,25.80713 z"
       transform="translate(-196.82418,-189.52218)"
       fill="#3f3d56"
       id="path18" />
    <path
       d="m 938.6184,287.47782 h -647.62 a 22.71737,22.71737 0 0 0 -22.69,22.69 v 341.62 a 22.58066,22.58066 0 0 0 6.18,15.54 c 0.4,0.43 0.82,0.84 1.25,1.22 a 22.52375,22.52375 0 0 0 15.26,5.93 h 647.62 a 22.71733,22.71733 0 0 0 22.6898,-22.69 c 31.11084,-87.83594 20.1709,-210.86475 0,-341.62012 a 22.71727,22.71727 0 0 0 -22.6898,-22.68988 z m 20.69,254.48031 A 130.51969,130.51969 0 0 1 828.78871,672.47782 H 290.9984 a 20.53491,20.53491 0 0 1 -13.29,-4.85 21.37541,21.37541 0 0 1 -2.99,-3.1 20.49653,20.49653 0 0 1 -4.41,-12.74 v -341.62 a 20.69,20.69 0 0 1 20.69,-20.69 h 475.61315 c 106.42353,0 192.69685,86.27331 192.69685,192.69685 z"
       transform="translate(-196.82418,-189.52218)"
       fill="#3f3d56"
       id="path20" />
    <path
       d="m 414.46838,627.42178 c 0.005,0.354 -0.005,0.70754 -0.0104,1.056 H 343.0256 a 11.9308,11.9308 0 0 1 -8.7172,-3.77518 c 0.0264,-0.49632 0.0686,-0.98735 0.12143,-1.47838 2.10144,-20.18522 22.91062,-24.04076 39.91111,-35.92992 19.13135,-13.3793 39.77979,16.43217 40.12744,40.12748 z"
       transform="translate(-196.82418,-189.52218)"
       fill="#3f3d56"
       id="path22" />
    <path
       d="m 430.30823,618.766 c -0.15235,0.19385 -0.004,0.493 -0.007,0.73589 H 380.512 a 8.31585,8.31585 0 0 1 -6.076,-2.63134 c 0.0184,-0.34593 0.0478,-0.68819 0.0846,-1.03044 1.46473,-14.0693 13.36474,-24.62636 27.81836,-25.04335 26.94433,-0.77732 40.80029,11.65624 27.96924,27.96924 z"
       transform="translate(-196.82418,-189.52218)"
       fill="#3f3d56"
       id="path24" />
    <path
       d="m 437.46856,539.42183 c 0,0.35374 -0.005,0.70749 -0.0106,1.056 H 366.0256 a 11.9308,11.9308 0 0 1 -8.7172,-3.77518 c 0.0264,-0.49632 0.0686,-0.98735 0.12143,-1.47838 2.10144,-20.18522 24.78859,-26.66061 39.91113,-35.93 15.12254,-9.26939 40.1276,17.9676 40.1276,40.12756 z"
       transform="translate(-196.82418,-189.52218)"
       fill="#3f3d56"
       id="path26" />
    <path
       d="m 453.30823,530.766 a 4.05069,4.05069 0 0 0 -0.007,0.73589 H 403.512 a 8.31585,8.31585 0 0 1 -6.076,-2.63134 c 0.0184,-0.34593 0.0478,-0.68819 0.0846,-1.03044 1.46473,-14.0693 14.144,-20.34315 27.81836,-25.04335 22.58447,-7.76316 31.92041,8.22658 27.96924,27.96924 z"
       transform="translate(-196.82418,-189.52218)"
       fill="#3f3d56"
       id="path28" />
    <path
       d="m 487.30823,544.74161 a 5.91819,5.91819 0 0 1 -0.007,0.73621 H 437.512 a 8.31585,8.31585 0 0 1 -6.076,-2.63134 c 0.0184,-0.34593 0.0478,-0.68819 0.0846,-1.03044 1.46473,-14.0693 17.72607,-14.68869 27.81836,-25.04367 9.3501,-9.59375 25.9292,9.31347 27.96924,27.96924 z"
       transform="translate(-196.82418,-189.52218)"
       fill="#3f3d56"
       id="path30" />
    <rect
       x="562.48419"
       y="239.95563"
       width="20"
       height="245"
       fill="#3f3d56"
       id="rect32" />
    <path
       d="m 911.38848,319.71781 c -0.74,-14.46 -5.66016,-28.98 -15.33008,-39.75 -4.22,-4.7 -22.05994,-15.72 -27.75,-18.49 2.16016,-16.99 13.78,-26.79 5.28,-41.32 -10.79,-18.43 -33.30005,-29.24 -54.43006,-26.13 a 52.68837,52.68837 0 0 0 -21.16,8.16 c -7.29993,-6.38 -17.28992,-10.3 -27.02,-11.79 -30.6499,-4.7 -63.41992,9.85 -80.48,35.74 -2.579,3.91344 -2.754,9.76966 -1.40987,16.75082 5.18065,26.90689 -9.6649,53.13166 -35.203,63.0626 a 3.6061,3.6061 0 0 0 -1.307,0.8366 c -14.74,15.25 -19.58,39.31 -11.87,59.08 1.82333,4.68 2.3664,12.816 7.367,13.03627 32.29571,1.42244 34.76959,19.04985 16.4563,45.26 -3.83405,5.48734 1.73679,13.23894 5.2066,19.07377 7.98,13.43 24.09009,20.33 39.69006,21.25 15.53,0.92 30.87,-3.19 45.88,-7.28 l 20,-0.8 c 17.21,2.97 35.21,2.5 51.52,-3.66 17.59,-6.65 32.92993,-20.50994 38.75,-38.38995 1.99,-6.11005 36.24,1.55 35.73,-4.88 8.52,-4.35 -17.24,-24.39 -10.79,-31.47 a 81.29094,81.29094 0 0 0 20.87005,-58.29011 z"
       transform="translate(-196.82418,-189.52218)"
       fill="#6c63ff"
       id="path34" />
    <path
       d="m 834.82061,424.12534 c -4.60413,14.14447 -15.176,25.756 -28.0962,33.28973 a 83.62323,83.62323 0 0 0 19.104,-4.6673 c 14.98572,-5.6654 28.31543,-16.57629 35.53961,-30.73535 -10.15038,0.01 -25.24602,-1.88281 -26.54741,2.11292 z"
       transform="translate(-196.82418,-189.52218)"
       opacity="0.1"
       id="path36" />
    <path
       d="m 890.51836,378.00778 a 81.29094,81.29094 0 0 0 20.87012,-58.29 c -0.74,-14.46 -5.66016,-28.98 -15.33008,-39.75 -4.22,-4.7 -22.05994,-15.72 -27.75,-18.49 2.16016,-16.99 13.78,-26.79 5.28,-41.32 -10.79,-18.43 -33.30005,-29.24 -54.43006,-26.13 a 52.68837,52.68837 0 0 0 -21.16,8.16 c -7.29993,-6.38 -17.28992,-10.3 -27.02,-11.79 -17.68835,-2.7124 -36.07684,0.99719 -51.7503,9.587 a 78.19408,78.19408 0 0 1 21.99249,0.18048 c 9.7301,1.49 19.72009,5.41 27.02,11.79 6.38012,-4.18 24.871,-14.85063 21.16,-8.16 -15.86151,28.59749 2.88568,42.63281 54.43006,26.13 8.20764,-2.62783 -2.76613,11.15069 -15.72229,27.50541 -11.97663,15.11824 1.27772,36.9496 20.22712,33.355 9.255,-1.75563 16.54268,-2.63469 17.96514,-1.05042 9.66992,10.77 44.65234,27.75751 15.33007,39.75 -29.32227,11.99249 -6.59008,42.63 -20.87011,58.29 -4.53119,4.97382 6.82348,16.33844 11.03253,24.17127 10.37982,-0.8039 29.90137,2.39837 29.51532,-2.46875 8.52005,-4.34993 -17.23996,-24.38997 -10.79001,-31.46999 z"
       transform="translate(-196.82418,-189.52218)"
       opacity="0.1"
       id="path38" />
    <path
       d="m 678.29674,491.28245 h 81.43311 a 1,1 0 0 0 0,-2 h -81.43311 a 1,1 0 0 0 0,2 z"
       transform="translate(-196.82418,-189.52218)"
       fill="#3f3d56"
       id="path40" />
    <path
       d="M 788.54813,570.80963 C 772.03737,548.8484 762.49444,524.29021 762.18172,496.29186 a 6.04125,6.04125 0 0 1 3.67595,-7.70164 l 56.27747,-19.91248 a 6.04121,6.04121 0 0 1 7.7016,3.676 l 26.3664,74.51777 a 6.04122,6.04122 0 0 1 -3.67591,7.70163 l -56.27746,19.91248 a 6.04122,6.04122 0 0 1 -7.70164,-3.67599 z"
       transform="translate(-196.82418,-189.52218)"
       fill="#e6e6e6"
       id="path42" />
    <path
       d="m 784.9012,546.77474 c -9.93022,-10.04034 -14.1809,-27.94788 -16.95072,-47.90679 a 5.65768,5.65768 0 0 1 3.44264,-7.21281 L 819.75886,474.542 a 5.65791,5.65791 0 0 1 7.21308,3.44253 l 23.46252,66.31068 a 5.65792,5.65792 0 0 1 -3.4429,7.21291 L 817.03,562.10937 a 25.202,25.202 0 0 1 -32.1288,-15.33463 z"
       transform="translate(-196.82418,-189.52218)"
       fill="#ffffff"
       id="path44" />
    <path
       d="m 827.61935,513.70644 -37.67558,13.44829 a 2.40023,2.40023 0 1 1 -1.61379,-4.52107 l 37.67558,-13.44829 a 2.40023,2.40023 0 0 1 1.61379,4.52107 z"
       transform="translate(-196.82418,-189.52218)"
       fill="#6c63ff"
       id="path46" />
    <path
       d="m 793.80731,511.79916 -8.28862,2.95863 a 2.4002304,2.4002304 0 1 1 -1.6138,-4.52107 l 8.28863,-2.95863 a 2.40023,2.40023 0 1 1 1.61379,4.52107 z"
       transform="translate(-196.82418,-189.52218)"
       fill="#6c63ff"
       id="path48" />
    <path
       d="m 834.714,533.58225 -37.67559,13.44829 a 2.40023,2.40023 0 1 1 -1.61379,-4.52107 l 37.67558,-13.44829 a 2.4002304,2.4002304 0 0 1 1.6138,4.52107 z"
       transform="translate(-196.82418,-189.52218)"
       fill="#6c63ff"
       id="path50" />
    <path
       d="m 831.16668,523.64435 -37.67558,13.44828 a 2.40023,2.40023 0 1 1 -1.61379,-4.52107 l 37.67558,-13.44828 a 2.40023,2.40023 0 0 1 1.61379,4.52107 z"
       transform="translate(-196.82418,-189.52218)"
       fill="#6c63ff"
       id="path52" />
    <circle
       cx="568.55725"
       cy="304.76025"
       r="10"
       fill="#6c63ff"
       id="circle54" />
    <path
       d="M 692.46609,239.28245 H 611.033 a 1,1 0 0 1 0,-2 h 81.4331 a 1,1 0 0 1 0,2 z"
       transform="translate(-196.82418,-189.52218)"
       fill="#3f3d56"
       id="path56" />
    <path
       d="m 505.72665,274.75392 c 7.07237,-26.54962 20.491,-49.22368 42.31642,-66.7638 a 6.04124,6.04124 0 0 1 8.32734,-1.86634 l 50.42149,31.9583 a 6.0412,6.0412 0 0 1 1.86632,8.32731 l -42.31643,66.76381 a 6.0412,6.0412 0 0 1 -8.3273,1.86636 l -50.4215,-31.9583 a 6.04122,6.04122 0 0 1 -1.86634,-8.32734 z"
       transform="translate(-196.82418,-189.52218)"
       fill="#e6e6e6"
       id="path58" />
    <path
       d="m 522.37562,257.03987 c 1.7622,-14.01115 13.21954,-28.41524 27.20483,-42.92184 a 5.65768,5.65768 0 0 1 7.79881,-1.74789 l 43.333,27.46547 a 5.65792,5.65792 0 0 1 1.74813,7.79895 l -37.65587,59.41071 a 5.65792,5.65792 0 0 1 -7.799,1.74773 L 530.1616,291.77872 a 25.202,25.202 0 0 1 -7.78598,-34.73885 z"
       transform="translate(-196.82418,-189.52218)"
       fill="#ffffff"
       id="path60" />
    <path
       d="M 574.76775,270.20862 540.92,248.88645 a 2.40023,2.40023 0 1 1 2.55866,-4.06173 l 33.84776,21.32217 a 2.4002314,2.4002314 0 1 1 -2.55867,4.06173 z"
       transform="translate(-196.82418,-189.52218)"
       fill="#6c63ff"
       id="path62" />
    <path
       d="m 555.38245,242.43991 -7.44651,-4.69088 a 2.40023,2.40023 0 0 1 2.55866,-4.06173 l 7.44651,4.69087 a 2.4002329,2.4002329 0 0 1 -2.55866,4.06174 z"
       transform="translate(-196.82418,-189.52218)"
       fill="#6c63ff"
       id="path64" />
    <path
       d="m 563.51921,288.06506 -33.84776,-21.32218 a 2.40023,2.40023 0 0 1 2.55866,-4.06173 l 33.84776,21.32218 a 2.40023,2.40023 0 1 1 -2.55866,4.06173 z"
       transform="translate(-196.82418,-189.52218)"
       fill="#6c63ff"
       id="path66" />
    <path
       d="m 569.14348,279.13684 -33.84776,-21.32217 a 2.4002329,2.4002329 0 0 1 2.55866,-4.06174 l 33.84776,21.32218 a 2.40023,2.40023 0 1 1 -2.55866,4.06173 z"
       transform="translate(-196.82418,-189.52218)"
       fill="#6c63ff"
       id="path68" />
    <circle
       cx="408.55725"
       cy="52.760262"
       r="10"
       fill="#6c63ff"
       id="circle70" />
    <path
       d="M 516.94472,368.00105 H 411.068 a 2.28323,2.28323 0 1 1 0,-4.56646 h 105.87672 a 2.28323,2.28323 0 0 1 0,4.56646 z"
       transform="translate(-196.82418,-189.52218)"
       fill="#6c63ff"
       id="path72" />
    <path
       d="M 570.54136,388.87517 H 411.068 a 2.28324,2.28324 0 1 1 0,-4.56647 h 159.47336 a 2.28324,2.28324 0 0 1 0,4.56647 z"
       transform="translate(-196.82418,-189.52218)"
       fill="#f2f2f2"
       id="path74" />
    <path
       d="m 570.54445,405.17939 h -159.48 a 2.285,2.285 0 0 0 0,4.57 h 159.48 a 2.285,2.285 0 0 0 0,-4.57 z"
       transform="translate(-196.82418,-189.52218)"
       fill="#f2f2f2"
       id="path76" />
    <path
       d="M 570.54136,430.62341 H 411.068 a 2.28324,2.28324 0 1 1 0,-4.56647 h 159.47336 a 2.28324,2.28324 0 0 1 0,4.56647 z"
       transform="translate(-196.82418,-189.52218)"
       fill="#f2f2f2"
       id="path78" />
    <path
       d="m 282.86952,478.219 4.80477,-39.53638 -13.077,-0.94 -2.93321,41.4577 a 6.5324,6.5324 0 1 0 11.20541,-0.9813 z"
       transform="translate(-196.82418,-189.52218)"
       fill="#a0616a"
       id="path80" />
    <path
       d="m 299.66174,383.16186 v 0 a 10.98878,10.98878 0 0 0 -11.69586,6.8257 c -5.49653,13.81686 -16.09944,40.92768 -15.52367,43.03749 0.77534,2.84111 1.55027,3.09928 -0.51592,4.13279 -2.06619,1.03351 -4.90772,-0.77409 -2.06619,1.03351 2.84153,1.8076 -0.77451,2.32477 0.51717,3.616 1.29168,1.29123 22.73056,4.129 22.73056,4.129 0,0 -4.73442,-14.3964 -3.14359,-16.49667 1.59083,-2.10027 6.75713,0.48185 4.17377,-2.10068 -2.58336,-2.58253 -4.9889,-3.29581 -1.97832,-4.48923 3.01058,-1.19342 5.64783,-2.51256 5.64783,-2.51256 l 10.29358,-21.53939 a 10.99526,10.99526 0 0 0 -8.43936,-15.63596 z"
       transform="translate(-196.82418,-189.52218)"
       fill="#e6e6e6"
       id="path82" />
    <polygon
       points="121.63,462.438 128.77,462.437 132.166,434.897 121.628,434.897 "
       fill="#a0616a"
       id="polygon84" />
    <path
       d="m 318.2026,659.4085 21.95675,-8.3e-4 V 659.13 a 8.54665,8.54665 0 0 0 -8.54618,-8.546 h -5.3e-4 l -4.01067,-3.04269 -7.483,3.04317 -1.91669,5e-5 z"
       transform="translate(-196.82418,-189.52218)"
       fill="#2f2e41"
       id="path86" />
    <polygon
       points="6.899,414.859 9.821,421.374 36.341,413.204 32.028,403.589 "
       fill="#a0616a"
       id="polygon88" />
    <path
       d="m 196.82418,607.19957 8.98466,20.03435 0.25334,-0.1136 a 8.54666,8.54666 0 0 0 4.30116,-11.29479 l -2.2e-4,-4.9e-4 1.13532,-4.90453 -5.83856,-5.58283 -0.78428,-1.74889 z"
       transform="translate(-196.82418,-189.52218)"
       fill="#2f2e41"
       id="path90" />
    <circle
       cx="114.69578"
       cy="163.25137"
       r="13.61737"
       fill="#a0616a"
       id="circle92" />
    <path
       d="m 335.72162,478.95276 -51.45828,-1.63359 c 0,0 -10.88849,21.07047 -4.21905,34.22237 6.66944,13.1519 1.3892,50.4122 1.3892,50.4122 l -66.598,33.80113 5.71759,13.06877 c 0,0 14.70236,-0.8168 17.15276,-3.26719 a 13.20283,13.20283 0 0 1 8.168,-3.26719 c 1.63359,0 49.82467,-21.23675 49.82467,-21.23675 L 308.219,544.779 l 12.70371,49.54813 -6.22934,44.02912 14.87056,0.39121 c 0,0 5.12923,-2.57712 3.60144,-6.44887 -1.52779,-3.87175 -2.31792,-5.5568 1.34434,-8.79827 3.66226,-3.24147 10.7546,-52.32652 10.7546,-52.32652 l -8.41179,-56.63947 c 0,0 -5.01027,-1.41 -0.77721,-5.23326 4.23306,-3.82326 -0.0927,-8.38451 -0.0927,-8.38451 0,0 3.58017,-5.06416 -0.047,-4.25143 -3.62717,0.81273 -0.214,-19.34592 -0.214,-19.34592"
       transform="translate(-196.82418,-189.52218)"
       fill="#2f2e41"
       id="path94" />
    <path
       d="m 324.22083,375.3995 -19.00017,-1.17721 -3.32222,5.49916 c 0,0 -7.47979,-0.418 -5.84619,2.03235 1.6336,2.45035 0.68407,0.44423 -1.7,2.26411 -2.38407,1.81988 -5.60336,2.143 -3.9937,3.615 0.23475,0.21467 0.13995,0.84969 -0.19327,1.77788 a 105.08223,105.08223 0 0 0 -4.68112,55.77694 c 1.11652,5.6848 1.82851,9.83261 1.58327,10.07785 -0.8168,0.8168 -4.90079,0 -2.4504,2.4504 2.45039,2.4504 6.53439,0 1.6336,4.90078 -4.90079,4.90078 -15.19116,25.65443 -3.26719,26.95434 11.92397,1.29991 56.35906,-1.6336 55.54226,-4.90079 L 332.80815,461.8 328.15176,395.99453 323.4864,383.426 Z"
       transform="translate(-196.82418,-189.52218)"
       fill="#e6e6e6"
       id="path96" />
    <path
       d="m 325.21409,490.82744 -7.938,-39.02818 -12.70369,3.24147 10.3209,40.25946 a 6.5324,6.5324 0 1 0 10.3208,-4.47275 z"
       transform="translate(-196.82418,-189.52218)"
       fill="#a0616a"
       id="path98" />
    <path
       d="m 311.10027,395.33586 v 0 a 10.98877,10.98877 0 0 0 -8.93883,10.17253 c -0.84758,14.84585 -2.33788,43.91812 -1.12477,45.73779 1.6336,2.45039 2.4504,2.45039 0.8168,4.084 -1.6336,1.63361 -4.90079,0.8168 -1.6336,1.63359 3.26719,0.81679 0,2.4504 1.6336,3.2672 1.6336,0.8168 22.87034,-3.2672 22.87034,-3.2672 0,0 -9.042,-12.16193 -8.19661,-14.65734 0.84539,-2.49541 6.563,-1.67862 3.29583,-3.31221 -3.26717,-1.63359 -5.77486,-1.55 -3.29583,-3.63379 2.47903,-2.08379 4.56412,-4.16889 4.56412,-4.16889 l 2.95782,-23.6887 a 10.99525,10.99525 0 0 0 -12.94887,-12.16698 z"
       transform="translate(-196.82418,-189.52218)"
       fill="#e6e6e6"
       id="path100" />
    <path
       d="m 315.62509,365.89485 a 28.43522,28.43522 0 0 1 -5.53861,3.3016 9.55549,9.55549 0 0 1 -6.31553,0.52266 7.21354,7.21354 0 0 1 -4.58812,-4.34844 c -0.75032,-2.05087 -7.01825,-4.44673 -5.83566,-6.28263 a 10.36129,10.36129 0 0 0 1.46389,-2.40185 1.8198,1.8198 0 0 0 -0.96835,-2.33073 1.6998,1.6998 0 0 0 -1.82092,1.04859 4.96369,4.96369 0 0 0 -0.284,2.24139 3.64956,3.64956 0 0 1 -1.00079,-4.25916 l -2.11818,-1.06371 c 1.82833,-0.7122 8.78627,-3.59713 7.2398,-4.80481 -1.3082,-1.02161 -5.51921,-4.34049 -5.04912,-5.53616 a 9.94411,9.94411 0 0 1 2.26869,-3.0838 c 1.82594,-1.90632 3.817,-3.90713 6.40206,-4.44151 2.20909,-0.45667 4.47168,0.24184 6.64156,0.85847 2.16988,0.61663 4.5176,1.15309 6.64244,0.39566 2.12484,-0.75743 3.73725,-3.33674 2.67372,-5.3261 a 4.24743,4.24743 0 0 1 3.884,2.44371 l 0.36395,-3.35021 a 10.71528,10.71528 0 0 1 4.38206,2.343 c 1.15887,1.20639 1.652,3.23 0.64164,4.56325 -1.11975,1.47749 -3.62377,1.64567 -4.28678,3.37692 -0.58173,1.519 0.67869,3.0547 1.7312,4.29487 1.05251,1.24017 1.97219,3.16508 0.86783,4.3593 -0.91386,0.98822 -2.51837,0.6736 -3.82117,1.01188 -1.96511,0.51025 -3.17352,2.58108 -3.43093,4.595 a 24.85054,24.85054 0 0 0 0.45214,6.05489 8.8256,8.8256 0 0 1 -0.89678,5.89652"
       transform="translate(-196.82418,-189.52218)"
       fill="#2f2e41"
       id="path102" />
    <path
       d="m 324.3084,357.47782 v 0 c -1.39239,0 -2.93542,-0.53991 -2.93542,-1.9323 v -8.84328 c 0,-1.39239 1.543,-1.22442 2.93542,-1.22442 v 0 c 3.47055,-2.32642 6.41183,1.06564 6.5285,5.64605 v 0 c -0.0399,4.94168 -2.75714,8.10053 -6.5285,6.35395 z"
       transform="translate(-196.82418,-189.52218)"
       fill="#3f3d56"
       id="path104" />
    <path
       d="m 322.37035,344.18106 h -4.44513 c -1.48645,0 -7.32336,-0.10247 -7.61682,1.29676 -7.84421,-1.38938 -10.92655,-1.42649 -15.48132,1.15368 a 2.042,2.042 0 1 0 0,4.084 l 14.48132,-0.23767 5.53021,4.50219 a 3.08657,3.08657 0 0 0 3.08661,3.08661 h 4.44513 A 3.08657,3.08657 0 0 0 325.457,354.98 c -1.424,-2.751 -1.65991,-5.35165 0,-7.71234 a 3.08662,3.08662 0 0 0 -3.08665,-3.0866 z"
       transform="translate(-196.82418,-189.52218)"
       fill="#6c63ff"
       id="path106" />
  </g>
</svg>
