<?xml version="1.0" encoding="UTF-8" standalone="no"?>
<svg
   xmlns:dc="http://purl.org/dc/elements/1.1/"
   xmlns:cc="http://creativecommons.org/ns#"
   xmlns:rdf="http://www.w3.org/1999/02/22-rdf-syntax-ns#"
   xmlns:svg="http://www.w3.org/2000/svg"
   xmlns="http://www.w3.org/2000/svg"
   xmlns:sodipodi="http://sodipodi.sourceforge.net/DTD/sodipodi-0.dtd"
   xmlns:inkscape="http://www.inkscape.org/namespaces/inkscape"
   data-name="Layer 1"
   width="717.67004"
   height="596.3292"
   viewBox="0 0 717.67004 596.3292"
   version="1.1"
   id="svg104"
   sodipodi:docname="mlogo.svg"
   inkscape:version="1.0.2-2 (e86c870879, 2021-01-15)">
  <g
     aria-label="ቅ
"
     id="text1586"
     style="font-size:40px;line-height:1.25;font-family:'Trebuchet MS';-inkscape-font-specification:'Trebuchet MS'" />
  <metadata
     id="metadata110">
    <rdf:RDF>
      <cc:Work
         rdf:about="">
        <dc:format>image/svg+xml</dc:format>
        <dc:type
           rdf:resource="http://purl.org/dc/dcmitype/StillImage" />
        <dc:title></dc:title>
      </cc:Work>
    </rdf:RDF>
  </metadata>
  <defs
     id="defs108" />
  <sodipodi:namedview
     pagecolor="#ffffff"
     bordercolor="#666666"
     borderopacity="1"
     objecttolerance="10"
     gridtolerance="10"
     guidetolerance="10"
     inkscape:pageopacity="0"
     inkscape:pageshadow="2"
     inkscape:window-width="1366"
     inkscape:window-height="697"
     id="namedview106"
     showgrid="false"
     inkscape:zoom="3.321811"
     inkscape:cx="501.38111"
     inkscape:cy="514.54842"
     inkscape:window-x="-8"
     inkscape:window-y="-8"
     inkscape:window-maximized="1"
     inkscape:current-layer="svg104"
     inkscape:document-rotation="0"
     showguides="false" />
  <path
     d="M241.165,746.9746a1.18647,1.18647,0,0,0,1.19006,1.19h715.29a1.19,1.19,0,0,0,0-2.38H242.355A1.18651,1.18651,0,0,0,241.165,746.9746Z"
     transform="translate(-241.16498 -151.8354)"
     fill="#ccc"
     id="path86" />
  <g
     id="g2286"
     transform="matrix(1.4434098,0,0,1.4434098,-535.428,-37.10051)"
     style="fill:#808080">
    <g
       aria-label="ኔ "
       id="text949"
       style="font-size:33.993px;line-height:1.25;font-family:'Trebuchet MS';-inkscape-font-specification:'Trebuchet MS';stroke-width:0.849825;fill:#808080"
       transform="matrix(10.239894,0,0,10.239894,-5807.7766,-3735.4073)">
      <path
         id="path1621"
         style="stroke-width:0.849825;fill:#808080"
         d="m 629.08525,388.40975 h 6.35709 l -2.25735,10.35724 h 0.99589 c 1.70408,0 2.95447,0.3209 3.75118,0.96269 0.79671,0.63073 1.19507,1.58236 1.19507,2.85488 0,1.33892 -0.41495,2.34034 -1.24486,3.00427 -0.82991,0.66393 -2.1301,0.99589 -3.90057,0.99589 h -5.27821 l 3.41922,-15.71845 c -7.98516,0.481 -4.63556,-2.71931 -5.82595,-8.08329 4.0701,-0.56278 2.77616,2.29936 2.78849,5.62677 z m 5.17862,15.78483 c 0.79671,0 1.35552,-0.12725 1.67641,-0.38175 0.33197,-0.25451 0.49795,-0.63073 0.49795,-1.12868 0,-0.53114 -0.17705,-0.91843 -0.53114,-1.16187 -0.35409,-0.24344 -0.94609,-0.36516 -1.776,-0.36516 h -1.46064 l -0.66393,3.03746 z"
         sodipodi:nodetypes="cccscsssccccscsssccs" />
    </g>
    <g
       aria-label="መ "
       id="text955"
       style="font-size:38.5126px;line-height:1.25;font-family:'Trebuchet MS';-inkscape-font-specification:'Trebuchet MS';stroke-width:0.962814;fill:#808080"
       transform="matrix(10.239894,0,0,10.239894,-5807.7766,-3735.4073)">
      <path
         id="path1590"
         style="stroke-width:0.962814;fill:#808080"
         d="m 632.45848,377.07388 c 1.01547,0 2.00587,0.0439 2.97119,0.13164 0.97786,0.0752 1.8993,0.24446 2.76433,0.50773 0.86503,0.26327 1.66111,0.63311 2.38823,1.1095 0.72713,0.47639 1.35396,1.10949 1.8805,1.8993 3.72366,5.962 -2.20817,11.83565 -7.55131,9.93448 -3.22635,-1.54998 -3.77704,-6.13526 -4.63429,-10.7431 h -5.84835 c -1.39417,9.64653 4.65973,17.4557 -14.38581,14.74311 -0.10029,-0.90264 -0.18178,-1.74886 -0.24447,-2.53867 -0.0501,-0.78981 -0.0752,-1.54828 -0.0752,-2.27541 0,-1.88049 0.15671,-3.50399 0.47013,-4.87049 0.32595,-1.36649 0.77727,-2.51986 1.35395,-3.46011 0.57669,-0.95279 1.25367,-1.71752 2.03094,-2.29421 0.78981,-0.57669 1.64857,-1.02174 2.57628,-1.33515 0.92771,-0.32595 1.90557,-0.53908 2.93358,-0.63937 1.04055,-0.11283 2.09363,-0.16925 3.15924,-0.16925 z m -11.15135,14.76191 v -11.92236 c -0.77727,0.0251 -1.52947,0.0815 -2.2566,0.16925 -0.71459,0.0878 -1.3853,0.25073 -2.01213,0.48893 -0.62683,0.23819 -1.19725,0.57668 -1.71125,1.01547 -0.50147,0.42625 -0.94025,0.9904 -1.31635,1.69245 -0.36357,0.70205 -0.64564,1.56707 -0.84623,2.59508 -0.20059,1.01547 -0.30088,2.23153 -0.30088,3.64817 0,0.36356 0.006,0.73966 0.0188,1.1283 0.0125,0.3761 0.0376,0.771 0.0752,1.18471 z m 19.6324,-2.95238 c 0.0376,-0.514 0.0564,-1.09695 0.0564,-1.74886 0.0492,-1.69741 -0.36626,-3.22232 -1.03427,-4.64483 -0.32595,-0.53908 -0.0634,-1.26381 -0.52723,-1.58976 -0.49338,-1.54098 -2.90276,-0.65948 -4.02358,-0.85489 -0.63937,-0.0752 -1.31008,-0.1191 -2.01213,-0.13164 v 8.96998 z m -17.12615,0.87767 c -0.70747,-0.23338 -0.46345,-0.0188 -1.3228,-0.63236 -1.70766,-2.47608 -1.25021,-6.72852 0.11719,-8.82812 1.26302,-1.01563 3.20963,-1.52344 5.83984,-1.52344 h 2.01172 c 0.74223,-5.53325 -0.93444,-4.15057 -5.61858,-4.15057 -0.76925,-2.99467 0.44258,-3.55376 1.40888,-5.16584 5.98395,-1.67134 -1.73633,3.07518 2.66686,3.29156 4.21209,-0.16257 5.48889,0.52178 4.82409,6.02485 h 2.44141 c 2.5,0 4.33594,0.46875 5.50781,1.40625 1.18489,0.9375 1.77734,2.35677 1.77734,4.25781 0,2.03125 -0.63151,3.55469 -1.89453,4.57032 -1.25,1.01562 -3.1901,1.52343 -5.82031,1.52343 h -2.01172 v 9.45313 h -3.28125 c 0.84368,-3.60668 0.90985,-6.83614 -0.26769,-8.33098 -0.91982,-1.16768 -2.09066,0.21812 -3.43894,-0.0934 -3.14653,-0.72699 -6.48281,-1.89572 -4.28384,-3.25064 m 1.48403,-5.20526 c -0.12335,2.94135 -0.86728,5.25104 -0.13951,6.65326 2.24559,4.32662 8.5339,1.30247 6.91557,-7.31719 -0.7837,-3.70737 -6.85049,-3.04863 -6.77606,0.66393 z m 12.44746,4.65117 c 1.5625,0 2.6888,-0.25391 3.3789,-0.76172 2.04683,-14.58108 -12.40659,-2.03282 -3.3789,0.76172 z"
         sodipodi:nodetypes="scssccccccscccccsscccscccsccccccccccccccscccccscscscccssccsccccc" />
    </g>
  </g>
  <path
     d="m 642.49935,552.46998 a 3.56386,3.56386 0 0 1 -2.52393,-6.20136 c 0.0933,-0.3563 0.1602,-0.61213 0.25341,-0.96849 a 9.57474,9.57474 0 0 0 -17.74853,-0.33644 c -4.31772,9.84578 -9.88142,20.028 -7.26661,30.94266 -17.594,-38.22733 -11.03667,-85.50774 15.81028,-117.80022 7.37364,-3.97084 13.38731,-11.09311 15.01445,-19.41415 -3.642,1.19546 -8.14,-1.80048 -5.37412,-5.59841 1.197,-1.45023 2.40544,-2.88879 3.60237,-4.33908 -13.65013,-14.81753 -30.30051,8.10754 -15.31045,28.074 a 114.26474,114.26474 0 0 0 -13.024,19.95056 48.04337,48.04337 0 0 0 -2.65565,-22.34156 c -2.68222,-6.64885 -7.77474,-12.27553 -12.25158,-18.044 -5.443,-7.0286 -16.81306,-3.91814 -17.6387,4.92756 5.06867,1.71964 5.65929,9.07055 -0.16646,10.02035 1.36654,16.4835 11.98172,31.72083 26.73177,39.08466 a 114.70965,114.70965 0 0 0 -6.72483,47.88518 c -2.43494,-19.011 -22.77131,-23.8125 -36.94436,-31.49419 a 5.54912,5.54912 0 0 0 -8.516,5.53977 32.05053,32.05053 0 0 1 5.58948,3.01718 4.84411,4.84411 0 0 1 -2.33454,8.82109 c 7.01111,17.83934 25.46154,29.94947 44.52854,30.06385 a 117.92916,117.92916 0 0 0 7.70134,23.201 l 28.29843,0.26948 c 0.10449,-0.31345 0.19885,-0.63723 0.29316,-0.95078 a 32.15326,32.15326 0 0 1 -7.82585,-0.5411 c 7.00816,-8.139 12.40748,-12.27407 8.48327,-23.76707 z"
     fill="#f2f2f2"
     id="path18-9"
     style="fill:#008000" />
  <path
     d="m 391.69822,518.10667 -13.00467,59.75626 a 1.3822308,1.4751564 89.145379 1 1 -2.89072,-0.54734 l 13.00466,-59.75625 a 1.3822312,1.4751569 89.145379 0 1 2.89073,0.54734 z"
     fill="#ffffff"
     id="path92-9"
     style="stroke-width:0.534574"
     inkscape:transform-center-x="1.2313087"
     inkscape:transform-center-y="-0.33786332" />
  <path
     d="m 400.50723,513.76767 -13.00467,59.75626 a 1.3822308,1.4751564 89.145379 1 1 -2.89072,-0.54734 l 13.00466,-59.75625 a 1.3822312,1.4751569 89.145379 0 1 2.89073,0.54734 z"
     fill="#ffffff"
     id="path92-9-6"
     style="stroke-width:0.534574"
     inkscape:transform-center-x="1.2313087"
     inkscape:transform-center-y="-0.33786332" />
  <path
     d="m 409.67094,508.63355 -13.00467,59.75626 a 1.3822308,1.4751564 89.145379 1 1 -2.89072,-0.54734 l 13.00466,-59.75625 a 1.3822312,1.4751569 89.145379 0 1 2.89073,0.54734 z"
     fill="#ffffff"
     id="path92-9-5"
     style="stroke-width:0.534574"
     inkscape:transform-center-x="1.2313087"
     inkscape:transform-center-y="-0.33786332" />
  <path
     d="m 82.72718,561.84688 a 3.56386,3.56386 0 0 0 2.52393,-6.20136 c -0.0933,-0.3563 -0.1602,-0.61213 -0.25341,-0.96849 a 9.57474,9.57474 0 0 1 17.74853,-0.33644 c 4.31772,9.84578 9.88142,20.028 7.26661,30.94266 17.594,-38.22733 11.03667,-85.50774 -15.81028,-117.80022 -7.37364,-3.97084 -13.38731,-11.09311 -15.01445,-19.41415 3.642,1.19546 8.14,-1.80048 5.37412,-5.59841 -1.197,-1.45023 -2.40544,-2.88879 -3.60237,-4.33908 13.65013,-14.81753 30.30051,8.10754 15.31045,28.074 a 114.26474,114.26474 0 0 1 13.024,19.95056 48.04337,48.04337 0 0 1 2.65565,-22.34156 c 2.68222,-6.64885 7.77474,-12.27553 12.25158,-18.044 5.443,-7.0286 16.81306,-3.91814 17.6387,4.92756 -5.06867,1.71964 -5.65929,9.07055 0.16646,10.02035 -1.36654,16.4835 -11.98172,31.72083 -26.73177,39.08466 a 114.70965,114.70965 0 0 1 6.72483,47.88518 c 2.43494,-19.011 22.77131,-23.8125 36.94436,-31.49419 a 5.54912,5.54912 0 0 1 8.516,5.53977 32.05053,32.05053 0 0 0 -5.58948,3.01718 4.84411,4.84411 0 0 0 2.33454,8.82109 c -7.01111,17.83934 -25.46154,29.94947 -44.52854,30.06385 a 117.92916,117.92916 0 0 1 -7.70134,23.201 l -28.29843,0.26948 c -0.10449,-0.31345 -0.19885,-0.63723 -0.29316,-0.95078 a 32.15326,32.15326 0 0 0 7.82585,-0.5411 c -7.00816,-8.139 -12.40748,-12.27407 -8.48327,-23.76707 z"
     fill="#f2f2f2"
     id="path18-9-8"
     style="fill:#008000" />
  <path
     d="M 419.42967,503.86402 406.425,563.62028 a 1.3822308,1.4751564 89.145379 1 1 -2.89072,-0.54734 l 13.00466,-59.75625 a 1.3822312,1.4751569 89.145379 0 1 2.89073,0.54734 z"
     fill="#ffffff"
     id="path92-9-8"
     style="stroke-width:0.534574"
     inkscape:transform-center-x="1.2313087"
     inkscape:transform-center-y="-0.33786332" />
  <path
     d="m 428.23868,501.52502 -13.00467,59.75626 a 1.3822308,1.4751564 89.145379 1 1 -2.89072,-0.54734 l 13.00466,-59.75625 a 1.3822312,1.4751569 89.145379 0 1 2.89073,0.54734 z"
     fill="#ffffff"
     id="path92-9-6-6"
     style="stroke-width:0.534574"
     inkscape:transform-center-x="1.2313087"
     inkscape:transform-center-y="-0.33786332" />
</svg>
