<?xml version="1.0" encoding="UTF-8" standalone="no"?>
<svg
   xmlns:dc="http://purl.org/dc/elements/1.1/"
   xmlns:cc="http://creativecommons.org/ns#"
   xmlns:rdf="http://www.w3.org/1999/02/22-rdf-syntax-ns#"
   xmlns:svg="http://www.w3.org/2000/svg"
   xmlns="http://www.w3.org/2000/svg"
   xmlns:sodipodi="http://sodipodi.sourceforge.net/DTD/sodipodi-0.dtd"
   xmlns:inkscape="http://www.inkscape.org/namespaces/inkscape"
   data-name="Layer 1"
   width="717.67004"
   height="596.3292"
   viewBox="0 0 717.67004 596.3292"
   version="1.1"
   id="svg104"
   sodipodi:docname="mobiledev.svg"
   inkscape:version="1.0.2-2 (e86c870879, 2021-01-15)">
  <metadata
     id="metadata110">
    <rdf:RDF>
      <cc:Work
         rdf:about="">
        <dc:format>image/svg+xml</dc:format>
        <dc:type
           rdf:resource="http://purl.org/dc/dcmitype/StillImage" />
        <dc:title />
      </cc:Work>
    </rdf:RDF>
  </metadata>
  <defs
     id="defs108" />
  <sodipodi:namedview
     pagecolor="#ffffff"
     bordercolor="#666666"
     borderopacity="1"
     objecttolerance="10"
     gridtolerance="10"
     guidetolerance="10"
     inkscape:pageopacity="0"
     inkscape:pageshadow="2"
     inkscape:window-width="1366"
     inkscape:window-height="697"
     id="namedview106"
     showgrid="false"
     inkscape:zoom="2.4725967"
     inkscape:cx="560.57722"
     inkscape:cy="343.61675"
     inkscape:window-x="-8"
     inkscape:window-y="-8"
     inkscape:window-maximized="1"
     inkscape:current-layer="svg104"
     inkscape:document-rotation="0" />
  <rect
     x="204.85477"
     width="326"
     height="594"
     rx="58.728352"
     fill="#3f3d56"
     id="rect2"
     y="0" />
  <path
     d="M766.5202,210.56773v476.54a53.29169,53.29169,0,0,1-53.23,53.23h-208.54a53.29169,53.29169,0,0,1-53.23-53.23v-476.54a53.29173,53.29173,0,0,1,53.23-53.23h27.27v9.42a16.08092,16.08092,0,0,0,16.08,16.08h121.84a16.08092,16.08092,0,0,0,16.08-16.08v-9.42h27.27A53.29174,53.29174,0,0,1,766.5202,210.56773Z"
     transform="translate(-241.16498 -151.8354)"
     fill="#fff"
     id="path4" />
  <path
     d="M444.51974,272.33541a4.0046,4.0046,0,0,1-4-4v-8a4,4,0,0,1,8,0v8A4.00458,4.00458,0,0,1,444.51974,272.33541Z"
     transform="translate(-241.16498 -151.8354)"
     fill="#3f3d56"
     id="path6" />
  <path
     d="M444.51974,313.35689a4.00458,4.00458,0,0,1-4-4V287.33541a4,4,0,0,1,8,0v22.02148A4.00458,4.00458,0,0,1,444.51974,313.35689Z"
     transform="translate(-241.16498 -151.8354)"
     fill="#3f3d56"
     id="path8" />
  <path
     d="M444.51974,346.33541a4.00458,4.00458,0,0,1-4-4V320.31392a4,4,0,0,1,8,0v22.02149A4.00459,4.00459,0,0,1,444.51974,346.33541Z"
     transform="translate(-241.16498 -151.8354)"
     fill="#3f3d56"
     id="path10" />
  <path
     d="M772.51974,328.3354a4.00458,4.00458,0,0,1-4-4V270.602a4,4,0,0,1,8,0v53.7334A4.00459,4.00459,0,0,1,772.51974,328.3354Z"
     transform="translate(-241.16498 -151.8354)"
     fill="#3f3d56"
     id="path12" />
  <path
     d="M617.61227,170.1812h-31a2.5,2.5,0,0,1,0-5h31a2.5,2.5,0,0,1,0,5Z"
     transform="translate(-241.16498 -151.8354)"
     fill="#fff"
     id="path14" />
  <circle
     cx="392.44729"
     cy="15.8458"
     r="2"
     fill="#fff"
     id="circle16" />
  <path
     d="M873.917,720.85262a3.56386,3.56386,0,0,0,2.52393-6.20136c-.09328-.3563-.1602-.61213-.25341-.96849a9.57474,9.57474,0,0,1,17.74853-.33644c4.31772,9.84578,9.88142,20.028,7.26661,30.94266,17.594-38.22733,11.03667-85.50774-15.81028-117.80022-7.37364-3.97084-13.38731-11.09311-15.01445-19.41415,3.642,1.19546,8.14-1.80048,5.37412-5.59841-1.197-1.45023-2.40544-2.88879-3.60237-4.33908,13.65013-14.81753,30.30051,8.10754,15.31045,28.074a114.26474,114.26474,0,0,1,13.024,19.95056,48.04337,48.04337,0,0,1,2.65565-22.34156c2.68222-6.64885,7.77474-12.27553,12.25158-18.044,5.443-7.0286,16.81306-3.91814,17.6387,4.92756-5.06867,1.71964-5.65929,9.07055.16646,10.02035-1.36654,16.4835-11.98172,31.72083-26.73177,39.08466a114.70965,114.70965,0,0,1,6.72483,47.88518c2.43494-19.011,22.77131-23.8125,36.94436-31.49419a5.54912,5.54912,0,0,1,8.516,5.53977,32.05053,32.05053,0,0,0-5.58948,3.01718,4.84411,4.84411,0,0,0,2.33454,8.82109c-7.01111,17.83934-25.46154,29.94947-44.52854,30.06385a117.92916,117.92916,0,0,1-7.70134,23.201l-28.29843.26948c-.10449-.31345-.19885-.63723-.29316-.95078a32.15326,32.15326,0,0,0,7.82585-.5411c-7.00816-8.139-12.40748-12.27407-8.48327-23.76707Z"
     transform="translate(-241.16498 -151.8354)"
     fill="#f2f2f2"
     id="path18" />
  <path
     d="M326.16179,720.85262a3.56386,3.56386,0,0,1-2.52393-6.20136c.09328-.3563.1602-.61213.25341-.96849a9.57474,9.57474,0,0,0-17.74853-.33644c-4.31772,9.84578-9.88142,20.028-7.26661,30.94266-17.594-38.22733-11.03667-85.50774,15.81028-117.80022,7.37364-3.97084,13.38731-11.09311,15.01445-19.41415-3.642,1.19546-8.14-1.80048-5.37412-5.59841,1.19705-1.45023,2.40544-2.88879,3.60237-4.33908-13.65013-14.81753-30.30051,8.10754-15.31045,28.074a114.26474,114.26474,0,0,0-13.024,19.95056,48.04337,48.04337,0,0,0-2.65565-22.34156c-2.68222-6.64885-7.77474-12.27553-12.25158-18.044-5.443-7.0286-16.81306-3.91814-17.6387,4.92756,5.06867,1.71964,5.65929,9.07055-.16646,10.02035,1.36654,16.4835,11.98172,31.72083,26.73177,39.08466a114.70965,114.70965,0,0,0-6.72483,47.88518c-2.43494-19.011-22.77131-23.8125-36.94436-31.49419a5.54912,5.54912,0,0,0-8.516,5.53977,32.05053,32.05053,0,0,1,5.58948,3.01718,4.84411,4.84411,0,0,1-2.33454,8.82109c7.01111,17.83934,25.46154,29.94947,44.52854,30.06385a117.92916,117.92916,0,0,0,7.70134,23.201l28.29843.26948c.10449-.31345.19885-.63723.29316-.95078a32.15326,32.15326,0,0,1-7.82585-.5411c7.00816-8.139,12.40748-12.27407,8.48327-23.76707Z"
     transform="translate(-241.16498 -151.8354)"
     fill="#f2f2f2"
     id="path20" />
  <path
     d="M520.10563,180.90845h-27a5,5,0,0,1,0-10h27a5,5,0,0,1,0,10Z"
     transform="translate(-241.16498 -151.8354)"
     fill="#e6e6e6"
     id="path22" />
  <circle
     cx="455.94066"
     cy="24.07305"
     r="4.5"
     fill="#e6e6e6"
     id="circle24" />
  <circle
     cx="469.94066"
     cy="24.07305"
     r="4.5"
     fill="#e6e6e6"
     id="circle26" />
  <circle
     cx="483.94066"
     cy="24.07305"
     r="4.5"
     fill="#e6e6e6"
     id="circle28" />
  <path
     d="M693.95935,250.79253h-169.7a12.41709,12.41709,0,0,0-12.4,12.4v110.31a12.41711,12.41711,0,0,0,12.4,12.4h169.7a12.41069,12.41069,0,0,0,12.4-12.4v-110.31A12.41068,12.41068,0,0,0,693.95935,250.79253Z"
     transform="translate(-241.16498 -151.8354)"
     fill="#f2f2f2"
     id="path30" />
  <path
     d="M640.83209,297.8843a791.404,791.404,0,0,1-50.68162,78.41976H563.53819q26.1465-31.85316,52.33162-63.70633c5.008-6.11445,10.443-12.52,17.955-15.00452Z"
     transform="translate(-241.16498 -151.8354)"
     fill="#3f3d56"
     id="path32" />
  <path
     d="M605.46563,293.53629c-2.77585,2.8922-5.43512,5.90085-7.93907,9.02608-5.51273,6.63847-10.94773,13.33523-16.40217,20.01255-3.39689,4.15383-6.79379,8.30777-10.15182,12.46172a24.78863,24.78863,0,0,1-3.02808-2.29046A27.16074,27.16074,0,0,1,602.651,290.97405,25.03515,25.03515,0,0,1,605.46563,293.53629Z"
     transform="translate(-241.16498 -151.8354)"
     fill="#6c63ff"
     id="path34" />
  <path
     d="M706.35938,290.3825v4.03l-1.8-.66-25.33-9.26c-8.25-3.01-16.48-6.45-25-8.62a39.4016,39.4016,0,0,0-22.64.29,51.94969,51.94969,0,0,0-17.64,10.95c-2.25,2.08-4.43,4.21-6.54,6.42-.69.73-1.38,1.46-2.06,2.19-2.04,2.22-4.01,4.49-5.88,6.84-5.51,6.64-10.95,13.34-16.4,20.01-3.4,4.16-6.8,8.31-10.16,12.46q-16.83,20.595-33.46,41.27a19.53674,19.53674,0,0,1-4.43-.56q16.965-21.075,34.09-42.04.39-.48.78-.96c1.34-1.67,2.71-3.35,4.07-5.02q8.535-10.455,17.08-20.89c4.14-5.06,8.25-10.14,12.71-14.94.27-.31.55-.61.84-.92.43-.46.86-.91,1.3-1.38,9.69-10.01,21.78-18.86,36.26-19.1,8.52-.13,16.75,2.57,24.67,5.42005,8.53,3.09,17.03,6.23,25.55,9.35Z"
     transform="translate(-241.16498 -151.8354)"
     fill="#3f3d56"
     id="path36" />
  <path
     d="M710.3495,629.45363H507.6909a12.4134,12.4134,0,0,1-12.39918-12.39918V589.7417a12.4134,12.4134,0,0,1,12.39918-12.39918H710.3495a12.4134,12.4134,0,0,1,12.39918,12.39918v27.31275A12.4134,12.4134,0,0,1,710.3495,629.45363Z"
     transform="translate(-241.16498 -151.8354)"
     fill="#f2f2f2"
     id="path38" />
  <path
     d="M710.3495,489.45363H507.6909a12.4134,12.4134,0,0,1-12.39918-12.39918V449.7417a12.4134,12.4134,0,0,1,12.39918-12.39918H710.3495a12.4134,12.4134,0,0,1,12.39918,12.39918v27.31275A12.4134,12.4134,0,0,1,710.3495,489.45363Z"
     transform="translate(-241.16498 -151.8354)"
     fill="#f2f2f2"
     id="path40" />
  <path
     d="M710.3495,559.45363H507.6909a12.4134,12.4134,0,0,1-12.39918-12.39918V519.7417a12.4134,12.4134,0,0,1,12.39918-12.39918H710.3495a12.4134,12.4134,0,0,1,12.39918,12.39918v27.31275A12.4134,12.4134,0,0,1,710.3495,559.45363Z"
     transform="translate(-241.16498 -151.8354)"
     fill="#f2f2f2"
     id="path42" />
  <path
     d="M633.6415,598.72353H573.92982a2.67117,2.67117,0,0,1,0-5.34234H633.6415a2.67117,2.67117,0,0,1,0,5.34234Z"
     transform="translate(-241.16498 -151.8354)"
     fill="#fff"
     id="path44" />
  <path
     d="M691.07162,613.415H573.262a2.67117,2.67117,0,0,1,0-5.34234h117.8096a2.67117,2.67117,0,0,1,0,5.34234Z"
     transform="translate(-241.16498 -151.8354)"
     fill="#fff"
     id="path46" />
  <circle
     cx="301.04208"
     cy="451.56268"
     r="17.90945"
     fill="#fff"
     id="circle48" />
  <path
     d="m 231.0514,475.75407 a 7.74428,7.74428 0 0 0 -10.20256,3.54711 7.43134,7.43134 0 0 0 -0.43951,1.14687 l -26.96921,1.61166 -3.997,13.97247 36.7058,-6.20206 a 7.7228,7.7228 0 0 0 8.48718,-4.10633 7.39069,7.39069 0 0 0 -3.40108,-9.88319 q -0.0912,-0.0445 -0.18362,-0.0865 z"
     fill="#ffb6b6"
     id="path50"
     style="fill:#aa4400" />
  <path
     d="m 171.52237,406.83435 v 0 a 13.37259,13.37259 0 0 0 -18.04487,9.16224 l -7.41461,29.9431 1.39472,52.38373 c 0,0 38.702,7.42638 45.19914,2.65273 6.49714,-4.77365 5.88706,-8.32722 6.4971,-4.77365 0.61004,3.55357 3.39869,5.0447 3.43741,3.631 0.0387,-1.4137 0.35417,-1.17209 1.97323,-1.59791 1.61906,-0.42582 8.76491,-3.05958 8.76491,-3.05958 l 0.32,-14.93516 c 0,0 -11.81354,-4.47869 -14.67963,-3.14244 -2.86609,1.33625 0.61,3.55357 -2.86608,1.33624 -3.47608,-2.21733 -3.856,-9.21572 -4.45033,-2.90852 -0.59433,6.3072 -2.3343,7.48153 -4.94046,4.677 -2.60616,-2.80453 -14.68055,-1.01308 -14.68055,-1.01308 l 7.68342,-58.22987 a 13.37258,13.37258 0 0 0 -8.1934,-14.12583 z"
     fill="#6c63ff"
     id="path52" />
  <polygon
     points="498.157,562.178 498.564,551.148 456.212,544.329 455.612,560.608 "
     fill="#ffb6b6"
     id="polygon54"
     style="fill:#aa4400"
     transform="translate(-68)" />
  <path
     d="m 422.46909,565.49883 -0.40158,-17.66077 7.55,0.27858 12.18888,-16.32676 a 4.71924,4.71924 0 0 1 8.498,2.997 l -0.7741,20.97961 -7.60155,3.34059 7.416,1.68749 -0.29187,7.91015 z"
     fill="#2f2e41"
     id="path56"
     style="fill:#280b0b" />
  <path
     d="M 191.79762,587.47242 325.94075,571.8737 c 0,0 57.92747,3.34588 71.51863,-5.49564 l 14.33237,-1.80941 0.7768,-21.05266 c 0,0 -8.76425,0.0646 -13.80315,-2.28315 -5.0389,-2.34778 -1.5369,-5.2206 -6.34117,-2.39583 -4.80427,2.82477 -4.29677,3.16449 -8.01127,1.86626 -3.7145,-1.29823 -174.05,-8.26107 -174.05,-8.26107 z"
     fill="#2f2e41"
     id="path58"
     style="fill:#280b0b" />
  <polygon
     points="436.563,578.337 444.363,570.527 417.953,536.724 406.441,548.25 "
     fill="#ffb6b6"
     id="polygon60"
     style="fill:#aa4400"
     transform="translate(-68)" />
  <path
     d="m 360.66826,575.54291 11.71713,-13.22018 5.34542,5.33917 20.03985,-3.67914 a 4.71923,4.71923 0 0 1 4.19152,7.97679 l -14.83624,14.8536 -7.84469,-2.721 4.289,6.28091 -5.59385,5.6004 z"
     fill="#2f2e41"
     id="path62"
     style="fill:#280b0b" />
  <path
     d="m 138.87439,514.00712 1.33359,30.99956 c 1.56994,36.49347 41.75932,58.58065 72.92311,39.52662 q 0.86156,-0.52677 1.72887,-1.09132 c 0,0 11.81428,-3.17271 11.45565,-8.19723 -0.35863,-5.02452 2.52757,-7.4699 5.08175,-6.09972 2.55418,1.37018 35.99612,-46.09043 35.99612,-46.09043 0,0 69.48152,34.65878 84.80968,42.8177 l 16.17348,-4.40663 c 0,0 6.08708,2.87491 3.89443,-1.283 -2.19265,-4.15791 -2.58585,-2.16655 -3.25951,-6.69673 -0.67366,-4.53018 -2.39688,-10.14673 -3.44173,-9.91051 -1.04485,0.23622 -85.957,-59.1949 -85.957,-59.1949 0,0 -13.83321,-14 -30.9928,-4.75634 -0.3574,1.35782 -0.0519,1.40513 -0.0519,1.40513 l -56.68436,46.18863 -8.00942,-15.21084 z"
     fill="#2f2e41"
     id="path64"
     style="fill:#280b0b" />
  <path
     d="m 176.97308,400.10427 -24.30372,-11.39046 -7.2761,12.6606 c 0,0 -19.54183,27.88665 -19.8253,48.00476 -0.28347,20.11811 3.18465,26.10071 3.18465,26.10071 0,0 -8.42568,6.29921 -4.21284,10.14961 4.21284,3.8504 13.53954,5.51181 6.37619,7.1811 -7.16335,1.66929 -5.348,18.56858 2.652,21.56858 8,3 50.96418,2.97375 50.96418,2.97375 a 7.65139,7.65139 0 0 1 1.88976,-7.53446 c 3.33071,-3.33858 6.33071,-0.9429 3.33071,-6.14074 -3,-5.19784 -8,-2.19784 -4,-9.19784 4,-7 3.99854,-9.09184 3.99854,-9.09184 0,0 8.15437,-15.51893 -4.12807,-32.35468 -0.74869,-1.02624 -0.11917,-1.06581 -0.11917,-1.06581 l -9.918,-33.2357 z"
     fill="#6c63ff"
     id="path66"
     style="fill:#6c6379;fill-opacity:1" />
  <path
     d="m 137.80643,352.21098 c 0.20559,5.13373 -3.02967,12.407 -4.6229,16.79273 -1.70331,4.6889 5.67924,10.91292 10.40462,12.27588 a 6.98917,6.98917 0 0 1 2.28864,-4.19665 11.96706,11.96706 0 0 0 -0.0872,4.70808 l 39.94785,9.09437 c 7.18664,-8.32238 14.41277,-20.28686 12.83655,-34.71671 a 14.03973,14.03973 0 0 0 -6.761,-14.00008 l -20.1955,-11.93054 c -8.59021,-1.95561 -19.408,-3.13636 -25.61265,2.17895 a 24.57545,24.57545 0 0 0 -8.19837,19.79397 z"
     fill="#2f2e41"
     id="path68" />
  <circle
     cx="173.51392"
     cy="363.48856"
     r="23"
     fill="#ffb6b6"
     id="circle70"
     style="fill:#aa4400" />
  <path
     d="m 146.56926,351.20093 -1.10988,4.87526 19.40355,4.41734 a 7.15592,7.15592 0 0 1 2.38608,-5.21032 12.19175,12.19175 0 0 0 0.13928,5.78523 c 10.46445,5.872 19.89624,7.95233 28.35369,6.4549 a 4.43086,4.43086 0 0 0 5.30385,-3.33675 v 0 c 3.40288,-14.94742 -5.51208,-30.22473 -20.38619,-33.93493 a 27.99693,27.99693 0 0 0 -34.09038,20.94929 z"
     fill="#2f2e41"
     id="path72" />
  <path
     d="m 157.91377,319.03544 c 2.55851,-0.55537 5.26612,-0.42114 7.57949,-2.15411 l -1.51712,3.48248 a 17.626,17.626 0 0 1 12.58531,1.257 6.7302,6.7302 0 0 1 2.8492,2.41205 4.95656,4.95656 0 0 1 0.37479,4.26923 4.64131,4.64131 0 0 1 -2.71808,2.58135 8.96267,8.96267 0 0 1 -3.32585,0.34819 q -7.08317,-0.165 -14.16625,-0.33012 a 10.59127,10.59127 0 0 1 -5.22462,-1.01528 5.21975,5.21975 0 0 1 -2.42395,-5.18324 c 0.45041,-3.16575 3.42859,-5.11225 5.98708,-5.66755 z"
     fill="#2f2e41"
     id="path74" />
  <path
     d="m 284.67863,499.29568 a 0.98062,0.98062 0 0 0 -0.18816,-0.17287 2.01234,2.01234 0 0 0 -0.61614,-0.48219 l -1.6832,-0.90095 -11.17325,-12.4049 a 2.80646,2.80646 0 0 0 -2.09816,-0.2007 l -0.0287,0.009 -4.78642,1.48028 -4.11644,1.27747 -5.75023,1.78243 -39.16614,12.12765 -25.7448,7.97084 a 2.785,2.785 0 0 0 -1.8295,3.448 2.89846,2.89846 0 0 0 0.58784,1.04447 l 0.81928,0.91173 1.71831,1.91427 3.98114,8.25041 1.10458,1.23285 a 2.775,2.775 0 0 0 2.86591,0.80414 l 84.81461,-23.58471 a 2.82416,2.82416 0 0 0 1.28951,-4.50691 z"
     fill="#cccccc"
     id="path76" />
  <path
     d="m 279.64314,376.5903 -1.64243,0.2662 a 1.72823,1.72823 0 0 0 -1.11942,0.69471 l -0.72375,1.01191 -6.5272,16.32176 a 1.72814,1.72814 0 0 0 -0.29667,1.28843 l 0.7647,4.65037 -2.89028,83.00559 a 1.74786,1.74786 0 0 0 0.64654,1.08405 l 12.67291,16.95222 0.29589,0.23506 0.63823,0.49974 a 1.75568,1.75568 0 0 0 1.14665,0.36459 l 1.077,-0.0513 a 1.73016,1.73016 0 0 0 1.26549,-0.64526 1.70389,1.70389 0 0 0 0.35943,-1.36986 L 281.63372,378.0104 a 1.72477,1.72477 0 0 0 -1.98213,-1.42151 z"
     fill="#cccccc"
     id="path78" />
  <polygon
     points="337.111,400.653 334.874,471.007 343.874,479.007 342.893,383.04 "
     fill="#6c63ff"
     id="polygon80"
     transform="translate(-66)" />
  <path
     d="m 232.17973,490.3566 a 7.74428,7.74428 0 0 0 -10.20256,3.54712 7.43055,7.43055 0 0 0 -0.43951,1.14687 l -26.96922,1.61166 -3.997,13.97246 36.70579,-6.20206 a 7.7228,7.7228 0 0 0 8.48719,-4.10633 7.3907,7.3907 0 0 0 -3.401,-9.88321 q -0.0913,-0.0445 -0.18369,-0.0865 z"
     fill="#ffb6b6"
     id="path82"
     style="fill:#aa4400" />
  <path
     d="m 170.6507,421.43688 v 0 a 13.37258,13.37258 0 0 0 -18.04487,9.16225 l -7.41461,29.94309 1.39471,52.38373 c 0,0 38.70206,7.42639 45.19915,2.65274 6.49709,-4.77365 5.88706,-8.32722 6.4971,-4.77365 0.61004,3.55357 3.39869,5.04469 3.43741,3.631 0.0387,-1.41369 0.35416,-1.1721 1.97323,-1.59792 1.61907,-0.42582 8.76491,-3.05957 8.76491,-3.05957 l 0.32,-14.93517 c 0,0 -11.81354,-4.47868 -14.67963,-3.14244 -2.86609,1.33624 0.61,3.55357 -2.86608,1.33624 -3.47608,-2.21733 -3.856,-9.21572 -4.45033,-2.90851 -0.59433,6.30721 -2.3343,7.48152 -4.94046,4.677 -2.60616,-2.80452 -14.68055,-1.01309 -14.68055,-1.01309 l 7.68342,-58.22986 a 13.3726,13.3726 0 0 0 -8.1934,-14.12584 z"
     fill="#6c63ff"
     id="path84" />
  <path
     d="M241.165,746.9746a1.18647,1.18647,0,0,0,1.19006,1.19h715.29a1.19,1.19,0,0,0,0-2.38H242.355A1.18651,1.18651,0,0,0,241.165,746.9746Z"
     transform="translate(-241.16498 -151.8354)"
     fill="#ccc"
     id="path86" />
  <path
     d="M872.3495,489.45363H669.6909a12.4134,12.4134,0,0,1-12.39918-12.39918V449.7417a12.4134,12.4134,0,0,1,12.39918-12.39918H872.3495a12.4134,12.4134,0,0,1,12.39918,12.39918v27.31275A12.4134,12.4134,0,0,1,872.3495,489.45363Z"
     transform="translate(-241.16498 -151.8354)"
     fill="#e6e6e6"
     id="path88" />
  <path
     d="M795.6415,458.72353H735.92982a2.67117,2.67117,0,1,1,0-5.34234H795.6415a2.67117,2.67117,0,1,1,0,5.34234Z"
     transform="translate(-241.16498 -151.8354)"
     fill="#fff"
     id="path90" />
  <path
     d="M853.07162,473.415H735.262a2.67117,2.67117,0,1,1,0-5.34234h117.8096a2.67117,2.67117,0,0,1,0,5.34234Z"
     transform="translate(-241.16498 -151.8354)"
     fill="#fff"
     id="path92" />
  <circle
     cx="463.04208"
     cy="311.56268"
     r="17.90945"
     fill="#fff"
     id="circle94" />
  <path
     d="M807.3495,559.45363H604.6909a12.4134,12.4134,0,0,1-12.39918-12.39918V519.7417a12.4134,12.4134,0,0,1,12.39918-12.39918H807.3495a12.4134,12.4134,0,0,1,12.39918,12.39918v27.31275A12.4134,12.4134,0,0,1,807.3495,559.45363Z"
     transform="translate(-241.16498 -151.8354)"
     fill="#e6e6e6"
     id="path96" />
  <path
     d="M730.6415,528.72353H670.92982a2.67117,2.67117,0,1,1,0-5.34234H730.6415a2.67117,2.67117,0,0,1,0,5.34234Z"
     transform="translate(-241.16498 -151.8354)"
     fill="#fff"
     id="path98" />
  <path
     d="M788.07162,543.415H670.262a2.67117,2.67117,0,0,1,0-5.34234h117.8096a2.67117,2.67117,0,0,1,0,5.34234Z"
     transform="translate(-241.16498 -151.8354)"
     fill="#fff"
     id="path100" />
  <circle
     cx="398.04208"
     cy="381.56268"
     r="17.90945"
     fill="#fff"
     id="circle102" />
  <text
     xml:space="preserve"
     style="font-size:21.7878px;line-height:1.25;font-family:'Trebuchet MS';-inkscape-font-specification:'Trebuchet MS';stroke-width:0.544695"
     x="579.98145"
     y="316.14221"
     id="text943"><tspan
       sodipodi:role="line"
       id="tspan941"
       x="579.98145"
       y="316.14221"
       style="stroke-width:0.544695">ቅ</tspan><tspan
       sodipodi:role="line"
       x="579.98145"
       y="343.52139"
       id="tspan945"
       style="stroke-width:0.544695" /></text>
  <text
     xml:space="preserve"
     style="font-size:21.7878px;line-height:1.25;font-family:'Trebuchet MS';-inkscape-font-specification:'Trebuchet MS';stroke-width:0.544695"
     x="594.37067"
     y="316.15982"
     id="text949"><tspan
       sodipodi:role="line"
       id="tspan947"
       x="594.37067"
       y="316.15982"
       style="stroke-width:0.544695">ኔ</tspan><tspan
       sodipodi:role="line"
       x="594.37067"
       y="343.539"
       id="tspan951"
       style="stroke-width:0.544695" /></text>
  <text
     xml:space="preserve"
     style="font-size:21.7878px;line-height:1.25;font-family:'Trebuchet MS';-inkscape-font-specification:'Trebuchet MS';stroke-width:0.544695"
     x="558.3194"
     y="317.51376"
     id="text955"><tspan
       sodipodi:role="line"
       id="tspan953"
       x="558.3194"
       y="317.51376"
       style="stroke-width:0.544695">መ</tspan><tspan
       sodipodi:role="line"
       x="558.3194"
       y="344.89294"
       id="tspan957"
       style="stroke-width:0.544695" /></text>
</svg>
